<?xml version="1.0" encoding="iso-8859-1"?>
<!-- Generator: Adobe Illustrator 19.0.0, SVG Export Plug-In . SVG Version: 6.00 Build 0)  -->
<svg xmlns="http://www.w3.org/2000/svg" xmlns:xlink="http://www.w3.org/1999/xlink" version="1.1" id="Layer_1" x="0px" y="0px" viewBox="0 0 512 512" style="enable-background:new 0 0 512 512;" xml:space="preserve">
<path style="fill:#E4EAF8;" d="M485.083,448.43H26.917c-10.122,0-18.327-8.205-18.327-18.327V81.897  c0-10.122,8.205-18.327,18.327-18.327h458.166c10.122,0,18.327,8.205,18.327,18.327v348.206  C503.409,440.225,495.205,448.43,485.083,448.43z"/>
<circle style="fill:#FFFFFF;" cx="118.55" cy="173.53" r="45.817"/>
<polygon style="fill:#B4E66E;" points="265.163,191.857 45.244,411.776 219.347,411.776 352.215,278.908 "/>
<polygon style="fill:#A0D755;" points="315.562,242.255 146.04,411.776 219.347,411.776 352.215,278.908 "/>
<path style="fill:#B4E66E;" d="M466.756,136.877v265.736c0,5.06-4.103,9.163-9.163,9.163H191.857L466.756,136.877z"/>
<path d="M485.083,54.98H26.917C12.075,54.98,0,67.055,0,81.897v348.206c0,14.842,12.075,26.917,26.917,26.917h458.166  c14.842,0,26.917-12.075,26.917-26.917V81.897C512,67.055,499.925,54.98,485.083,54.98z M494.819,430.103  c0,5.369-4.367,9.736-9.736,9.736H26.917c-5.369,0-9.736-4.367-9.736-9.736V81.897c0-5.369,4.367-9.736,9.736-9.736h458.166  c5.369,0,9.736,4.367,9.736,9.736V430.103z"/>
<path d="M470.043,128.94c-3.208-1.329-6.905-0.596-9.361,1.862L222.436,369.049c-3.355,3.355-3.355,8.795,0,12.148  c3.355,3.355,8.794,3.355,12.148,0l223.581-223.581v245.57H65.983l199.181-199.181l39.742,39.742c3.355,3.355,8.794,3.355,12.148,0  c3.355-3.355,3.355-8.794,0-12.148l-45.817-45.817c-3.355-3.355-8.794-3.355-12.148,0L39.17,405.702  c-2.457,2.457-3.192,6.152-1.862,9.361c1.33,3.211,4.463,5.303,7.937,5.303h421.512c4.744,0,8.591-3.846,8.591-8.591V136.877  C475.347,133.403,473.254,130.27,470.043,128.94z"/>
<path d="M118.55,227.937c30,0,54.407-24.408,54.407-54.407c0-7.528-1.511-14.82-4.491-21.676c-1.891-4.351-6.953-6.347-11.303-4.453  c-4.351,1.891-6.346,6.952-4.453,11.303c2.034,4.68,3.066,9.668,3.066,14.825c0,20.526-16.7,37.226-37.226,37.226  s-37.226-16.699-37.226-37.225s16.7-37.226,37.226-37.226c5.03,0,9.903,0.983,14.487,2.922c4.371,1.849,9.411-0.195,11.258-4.564  c1.849-4.37-0.195-9.41-4.564-11.258c-6.713-2.841-13.839-4.28-21.181-4.28c-30,0-54.407,24.408-54.407,54.407  C64.143,203.53,88.551,227.937,118.55,227.937z"/>
<g>
</g>
<g>
</g>
<g>
</g>
<g>
</g>
<g>
</g>
<g>
</g>
<g>
</g>
<g>
</g>
<g>
</g>
<g>
</g>
<g>
</g>
<g>
</g>
<g>
</g>
<g>
</g>
<g>
</g>
</svg>
